<svg width="165" height="89" viewBox="0 0 165 89" fill="none" xmlns="http://www.w3.org/2000/svg">
<path d="M66.3071 35.2021V40.066H51.2861V35.2021H66.3071ZM55.0056 28.8361H61.8723V53.2273C61.8723 53.9743 61.9677 54.5466 62.1584 54.9439C62.3651 55.3413 62.6671 55.6195 63.0644 55.7784C63.4618 55.9215 63.9625 55.993 64.5665 55.993C64.9957 55.993 65.3772 55.9771 65.711 55.9453C66.0607 55.8976 66.3547 55.85 66.5932 55.8023L66.617 60.8569C66.0289 61.0477 65.3931 61.1987 64.7096 61.31C64.0261 61.4212 63.2711 61.4769 62.4445 61.4769C60.9345 61.4769 59.6152 61.2305 58.4866 60.7377C57.374 60.2291 56.5156 59.4184 55.9116 58.3058C55.3076 57.1931 55.0056 55.7307 55.0056 53.9187V28.8361ZM77.084 40.829V61H70.2173V35.2021H76.6787L77.084 40.829ZM84.8567 35.0352L84.7375 41.4012C84.4037 41.3536 83.9984 41.3138 83.5215 41.282C83.0606 41.2343 82.6394 41.2105 82.2579 41.2105C81.2883 41.2105 80.4458 41.3377 79.7305 41.592C79.0312 41.8304 78.443 42.1881 77.9662 42.6649C77.5052 43.1418 77.1555 43.7219 76.9171 44.4054C76.6946 45.0889 76.5674 45.8678 76.5356 46.742L75.1527 46.3129C75.1527 44.6439 75.3196 43.11 75.6534 41.7112C75.9872 40.2965 76.472 39.0646 77.1078 38.0156C77.7595 36.9665 78.5543 36.1558 79.4921 35.5836C80.4299 35.0114 81.5029 34.7253 82.7109 34.7253C83.0924 34.7253 83.4818 34.7571 83.8792 34.8206C84.2766 34.8683 84.6024 34.9398 84.8567 35.0352ZM101.213 55.1824V43.6901C101.213 42.8636 101.078 42.1563 100.808 41.5681C100.537 40.9641 100.116 40.4952 99.5439 40.1614C98.9876 39.8276 98.2643 39.6607 97.3742 39.6607C96.6112 39.6607 95.9516 39.7958 95.3952 40.066C94.8389 40.3204 94.4097 40.6939 94.1077 41.1867C93.8057 41.6635 93.6547 42.2278 93.6547 42.8795H86.788C86.788 41.7827 87.0423 40.7416 87.551 39.7561C88.0596 38.7706 88.7987 37.9043 89.7683 37.1572C90.738 36.3943 91.8904 35.7982 93.2256 35.369C94.5766 34.9398 96.0867 34.7253 97.7557 34.7253C99.7585 34.7253 101.539 35.0591 103.096 35.7267C104.654 36.3943 105.878 37.3957 106.768 38.7308C107.674 40.066 108.127 41.735 108.127 43.7378V54.777C108.127 56.1917 108.215 57.3521 108.39 58.2581C108.564 59.1482 108.819 59.9271 109.153 60.5947V61H102.214C101.88 60.3006 101.626 59.4264 101.451 58.3773C101.292 57.3123 101.213 56.2473 101.213 55.1824ZM102.119 45.2876L102.167 49.174H98.3279C97.4219 49.174 96.6351 49.2773 95.9675 49.4839C95.2999 49.6906 94.7515 49.9846 94.3223 50.3661C93.8931 50.7317 93.5752 51.1609 93.3686 51.6536C93.1779 52.1464 93.0825 52.6868 93.0825 53.2749C93.0825 53.8631 93.2176 54.3956 93.4878 54.8724C93.758 55.3334 94.1475 55.699 94.6561 55.9692C95.1648 56.2235 95.7608 56.3507 96.4443 56.3507C97.4775 56.3507 98.3756 56.144 99.1386 55.7307C99.9015 55.3175 100.49 54.8088 100.903 54.2048C101.332 53.6008 101.555 53.0286 101.571 52.4881L103.383 55.3969C103.128 56.0487 102.779 56.7242 102.333 57.4236C101.904 58.123 101.356 58.7826 100.688 59.4025C100.021 60.0066 99.218 60.5072 98.2802 60.9046C97.3424 61.2861 96.2297 61.4769 94.9422 61.4769C93.305 61.4769 91.8188 61.151 90.4836 60.4993C89.1643 59.8317 88.1152 58.9177 87.3364 57.7574C86.5734 56.5811 86.1919 55.2459 86.1919 53.7518C86.1919 52.4007 86.4463 51.2006 86.9549 50.1515C87.4635 49.1025 88.2106 48.2203 89.1961 47.505C90.1975 46.7738 91.4453 46.2254 92.9394 45.8598C94.4336 45.4784 96.1662 45.2876 98.1372 45.2876H102.119ZM128.656 55.3731V24.3775H135.57V61H129.347L128.656 55.3731ZM112.347 48.411V47.9103C112.347 45.9393 112.57 44.1511 113.015 42.5457C113.46 40.9244 114.112 39.5336 114.97 38.3732C115.829 37.2129 116.886 36.3148 118.141 35.679C119.397 35.0432 120.828 34.7253 122.433 34.7253C123.943 34.7253 125.262 35.0432 126.391 35.679C127.535 36.3148 128.505 37.2208 129.3 38.397C130.11 39.5574 130.762 40.9323 131.255 42.5218C131.748 44.0955 132.105 45.8201 132.328 47.6957V48.7925C132.105 50.5887 131.748 52.2576 131.255 53.7995C130.762 55.3413 130.11 56.6924 129.3 57.8528C128.505 58.9972 127.535 59.8873 126.391 60.5231C125.246 61.159 123.911 61.4769 122.385 61.4769C120.78 61.4769 119.349 61.151 118.094 60.4993C116.854 59.8476 115.805 58.9336 114.946 57.7574C114.104 56.5811 113.46 55.1983 113.015 53.6087C112.57 52.0192 112.347 50.2866 112.347 48.411ZM119.214 47.9103V48.411C119.214 49.476 119.294 50.4694 119.453 51.3914C119.627 52.3133 119.906 53.1319 120.287 53.8472C120.684 54.5466 121.193 55.0949 121.813 55.4923C122.449 55.8738 123.22 56.0645 124.126 56.0645C125.302 56.0645 126.272 55.8023 127.035 55.2777C127.798 54.7373 128.378 53.9982 128.775 53.0604C129.188 52.1225 129.427 51.0417 129.49 49.8177V46.6943C129.443 45.6929 129.3 44.7949 129.061 44.0001C128.839 43.1894 128.505 42.498 128.06 41.9258C127.631 41.3536 127.09 40.9085 126.439 40.5906C125.803 40.2727 125.048 40.1137 124.173 40.1137C123.283 40.1137 122.52 40.3204 121.885 40.7336C121.249 41.131 120.732 41.6794 120.335 42.3788C119.953 43.0782 119.667 43.9047 119.476 44.8584C119.302 45.7963 119.214 46.8135 119.214 47.9103ZM152.809 61.4769C150.806 61.4769 149.01 61.159 147.42 60.5231C145.831 59.8714 144.48 58.9734 143.367 57.8289C142.27 56.6845 141.428 55.3572 140.84 53.8472C140.251 52.3212 139.957 50.6999 139.957 48.9832V48.0295C139.957 46.0744 140.236 44.2862 140.792 42.6649C141.348 41.0436 142.143 39.6369 143.176 38.4447C144.225 37.2526 145.497 36.3386 146.991 35.7028C148.485 35.0511 150.17 34.7253 152.046 34.7253C153.874 34.7253 155.495 35.0273 156.91 35.6313C158.324 36.2353 159.508 37.0936 160.462 38.2063C161.432 39.319 162.163 40.6542 162.656 42.2119C163.148 43.7537 163.395 45.4704 163.395 47.3619V50.2231H142.89V45.6453H156.647V45.1207C156.647 44.167 156.472 43.3166 156.123 42.5695C155.789 41.8066 155.28 41.2025 154.597 40.7575C153.913 40.3124 153.039 40.0899 151.974 40.0899C151.068 40.0899 150.289 40.2886 149.638 40.686C148.986 41.0833 148.453 41.6397 148.04 42.355C147.643 43.0702 147.341 43.9127 147.134 44.8823C146.943 45.836 146.848 46.8851 146.848 48.0295V48.9832C146.848 50.0164 146.991 50.9701 147.277 51.8444C147.579 52.7186 148 53.4736 148.541 54.1094C149.097 54.7452 149.765 55.238 150.544 55.5877C151.338 55.9374 152.236 56.1122 153.238 56.1122C154.478 56.1122 155.63 55.8738 156.695 55.3969C157.776 54.9042 158.706 54.1651 159.485 53.1796L162.823 56.8037C162.282 57.5825 161.543 58.3296 160.605 59.0449C159.683 59.7602 158.571 60.3483 157.267 60.8093C155.964 61.2543 154.478 61.4769 152.809 61.4769Z" fill="#FF9770"/>
<path d="M34.7924 16.7626H45.9305V52.598C45.9305 56.7701 45.0364 60.2841 43.2484 63.14C41.4852 65.996 39.039 68.1441 35.9099 69.5845C32.8057 71.0248 29.2296 71.745 25.1817 71.745C21.1337 71.745 17.5328 71.0248 14.3789 69.5845C11.2498 68.1441 8.79123 65.996 7.00318 63.14C5.23997 60.2841 4.35836 56.7701 4.35836 52.598V16.7626H15.5337V52.598C15.5337 55.0317 15.9186 57.0185 16.6884 58.5582C17.4583 60.0979 18.5634 61.2278 20.0038 61.948C21.469 62.6682 23.1949 63.0283 25.1817 63.0283C27.218 63.0283 28.944 62.6682 30.3595 61.948C31.7999 61.2278 32.8926 60.0979 33.6376 58.5582C34.4075 57.0185 34.7924 55.0317 34.7924 52.598V16.7626Z" fill="url(#paint0_linear_13_91)"/>
<defs>
<linearGradient id="paint0_linear_13_91" x1="9.32927" y1="1.40379" x2="17.9436" y2="142.675" gradientUnits="userSpaceOnUse">
<stop offset="0.112211" stop-color="#FF70A6"/>
<stop offset="0.399667" stop-color="#FF9770"/>
<stop offset="0.687373" stop-color="#FFD670"/>
</linearGradient>
</defs>
</svg>
